<svg width="512" height="512" viewBox="0 0 512 512" fill="none" xmlns="http://www.w3.org/2000/svg">
<path d="M398 81.84C357.647 49.5531 307.5 31.9745 255.82 32C194.9 32 138 55.47 95.4601 98.09C54.3501 139.33 31.8201 193.78 32.0001 251.37C32.0015 293.593 44.3973 334.887 67.6501 370.13L67.8401 370.4C68.1201 370.81 68.4101 371.22 68.7001 371.62C68.9901 372.02 69.3501 372.54 69.4301 372.67L69.6501 373.07C70.7801 375.07 71.6501 377.51 70.8801 379.97L52.4601 446.63C51.7232 449.109 51.3196 451.675 51.2601 454.26C51.2468 461.061 53.9311 467.59 58.7244 472.416C63.5177 477.241 70.0288 479.968 76.8301 480C80.4241 479.881 83.9658 479.105 87.2801 477.71L154.77 453.35L155.62 453.02C157.456 452.249 159.429 451.858 161.42 451.87C163.256 451.875 165.076 452.213 166.79 452.87C168.41 453.5 183.12 459.13 198.64 463.47C211.54 467.07 238.38 472.47 259.41 472.47C319.06 472.47 374.76 449.37 416.24 407.41C457.36 365.77 480 310.42 480 251.49C480.005 236.363 478.403 221.278 475.22 206.49C464.88 157.87 437.46 113.59 398 81.84ZM160 288C153.671 288 147.484 286.123 142.222 282.607C136.959 279.091 132.858 274.093 130.436 268.246C128.014 262.399 127.38 255.965 128.615 249.757C129.85 243.55 132.897 237.848 137.373 233.373C141.848 228.897 147.55 225.85 153.757 224.615C159.965 223.38 166.399 224.014 172.246 226.436C178.093 228.858 183.091 232.959 186.607 238.222C190.123 243.484 192 249.671 192 256C192 264.487 188.629 272.626 182.628 278.627C176.626 284.629 168.487 288 160 288ZM256 288C249.671 288 243.484 286.123 238.222 282.607C232.959 279.091 228.858 274.093 226.436 268.246C224.014 262.399 223.38 255.965 224.615 249.757C225.85 243.55 228.897 237.848 233.373 233.373C237.848 228.897 243.55 225.85 249.757 224.615C255.965 223.38 262.399 224.014 268.246 226.436C274.093 228.858 279.091 232.959 282.607 238.222C286.123 243.484 288 249.671 288 256C288 264.487 284.629 272.626 278.628 278.627C272.626 284.629 264.487 288 256 288ZM352 288C345.671 288 339.484 286.123 334.222 282.607C328.959 279.091 324.858 274.093 322.436 268.246C320.014 262.399 319.38 255.965 320.615 249.757C321.85 243.55 324.897 237.848 329.373 233.373C333.848 228.897 339.55 225.85 345.757 224.615C351.965 223.38 358.399 224.014 364.246 226.436C370.093 228.858 375.091 232.959 378.607 238.222C382.123 243.484 384 249.671 384 256C384 264.487 380.629 272.626 374.628 278.627C368.626 284.629 360.487 288 352 288Z" fill="#93989E"/>
</svg>
