<svg width="513" height="513" viewBox="0 0 513 513" fill="none" xmlns="http://www.w3.org/2000/svg">
<path d="M464.971 250.012C464.837 247.516 463.823 245.149 462.109 243.33C460.396 241.511 458.094 240.356 455.612 240.072L429.971 235.922C428.818 235.733 427.757 235.176 426.946 234.334C426.135 233.493 425.618 232.411 425.471 231.252C424.981 228.102 424.471 224.832 423.771 221.732C423.546 220.604 423.678 219.434 424.15 218.386C424.621 217.337 425.408 216.462 426.401 215.882L449.181 203.232C451.443 202.079 453.203 200.135 454.125 197.769C455.047 195.403 455.067 192.781 454.181 190.402L450.232 179.502C449.365 177.114 447.649 175.13 445.411 173.929C443.173 172.728 440.57 172.394 438.102 172.992L412.551 177.992C411.409 178.196 410.231 178.034 409.186 177.53C408.141 177.025 407.282 176.204 406.732 175.182C405.242 172.392 403.621 169.552 401.931 166.762C401.318 165.768 401.03 164.607 401.109 163.441C401.188 162.276 401.629 161.164 402.371 160.262L419.371 140.622C421.098 138.768 422.09 136.348 422.162 133.815C422.234 131.283 421.381 128.811 419.762 126.862L412.341 117.952C410.727 115.996 408.445 114.709 405.936 114.34C403.428 113.97 400.871 114.545 398.762 115.952L376.392 129.382C375.4 129.976 374.243 130.236 373.092 130.122C371.942 130.009 370.858 129.528 370.001 128.752C367.531 126.582 365.002 124.492 362.632 122.562C361.722 121.844 361.065 120.855 360.755 119.738C360.446 118.622 360.501 117.435 360.911 116.352L370.172 91.9519C371.18 89.6237 371.298 87.0063 370.504 84.5968C369.709 82.1872 368.057 80.1535 365.862 78.8819L355.771 72.9919C353.574 71.725 350.987 71.3132 348.505 71.8354C346.024 72.3575 343.822 73.777 342.322 75.8219L325.971 96.3619C325.383 97.2546 324.503 97.9147 323.481 98.2286C322.459 98.5425 321.359 98.4906 320.371 98.0819C319.761 97.8319 314.601 95.7219 310.591 94.3819C309.492 94.0234 308.535 93.3224 307.862 92.3813C307.189 91.4403 306.835 90.3086 306.852 89.1519L307.241 63.0819C307.381 60.5363 306.587 58.0272 305.01 56.0245C303.432 54.0217 301.179 52.6627 298.671 52.2019L287.221 50.2019C284.727 49.7709 282.16 50.2602 279.999 51.579C277.838 52.8977 276.229 54.9562 275.471 57.3719L266.971 82.1819C266.585 83.2832 265.857 84.2319 264.892 84.8888C263.927 85.5457 262.778 85.8762 261.611 85.8319H251.861C250.704 85.8557 249.569 85.5137 248.617 84.8548C247.666 84.1959 246.946 83.2535 246.561 82.1619L238.101 57.4919C237.357 55.0586 235.751 52.98 233.585 51.6455C231.418 50.3109 228.839 49.8119 226.331 50.2419L214.861 52.2419C212.37 52.6991 210.129 54.0448 208.555 56.0292C206.981 58.0136 206.18 60.5018 206.301 63.0319L206.701 89.1919C206.709 90.366 206.338 91.5113 205.643 92.4573C204.947 93.4033 203.965 94.0994 202.841 94.4419C200.551 95.3319 195.581 97.2319 193.321 98.0719C191.321 98.7919 189.141 98.0019 187.381 95.9719L171.121 75.9719C169.63 73.9145 167.43 72.4813 164.945 71.9478C162.461 71.4144 159.866 71.8183 157.661 73.0819L147.601 78.9119C145.382 80.1859 143.712 82.2363 142.915 84.6681C142.117 87.0998 142.248 89.7407 143.281 92.0819L152.531 116.422C152.935 117.508 152.988 118.693 152.683 119.81C152.378 120.928 151.731 121.922 150.831 122.652C148.401 124.652 145.911 126.652 143.431 128.872C142.58 129.642 141.504 130.12 140.362 130.235C139.219 130.35 138.07 130.097 137.081 129.512L114.971 115.822C112.848 114.441 110.294 113.882 107.789 114.25C105.283 114.618 102.997 115.888 101.361 117.822L93.9715 126.712C92.33 128.647 91.4601 131.121 91.5283 133.658C91.5966 136.195 92.5983 138.617 94.3415 140.462L111.421 160.082C112.179 160.966 112.633 162.071 112.714 163.232C112.795 164.394 112.499 165.551 111.871 166.532C110.161 169.252 108.531 172.112 107.051 174.972C106.498 176.001 105.633 176.828 104.58 177.334C103.527 177.841 102.341 178.001 101.191 177.792L75.6815 172.862C73.2116 172.266 70.6087 172.6 68.3696 173.801C66.1304 175.002 64.4117 176.985 63.5415 179.372L59.5415 190.252C58.6574 192.634 58.678 195.259 59.5996 197.627C60.5211 199.995 62.2795 201.943 64.5415 203.102L87.3215 215.752C88.3459 216.317 89.1585 217.201 89.6366 218.269C90.1147 219.337 90.2322 220.531 89.9715 221.672L89.7315 222.942C89.2115 225.732 88.7315 228.372 88.2715 231.182C88.1125 232.327 87.5955 233.392 86.7944 234.226C85.9933 235.059 84.9493 235.618 83.8115 235.822L58.1215 239.972C55.6091 240.28 53.295 241.493 51.6112 243.383C49.9274 245.273 48.9891 247.711 48.9715 250.242V261.822C48.9568 264.363 49.8855 266.819 51.5777 268.714C53.2699 270.609 55.6052 271.81 58.1315 272.082L83.8115 276.222C84.9654 276.41 86.0276 276.966 86.8388 277.808C87.65 278.65 88.1667 279.732 88.3115 280.892C88.8015 284.052 89.3115 287.312 90.0115 290.412C90.237 291.539 90.1048 292.709 89.6333 293.758C89.1618 294.807 88.3746 295.682 87.3815 296.262L64.6115 308.932C62.3495 310.085 60.5903 312.029 59.6683 314.395C58.7464 316.76 58.7262 319.382 59.6115 321.762L63.6115 332.662C64.4797 335.048 66.1965 337.031 68.434 338.232C70.6715 339.433 73.2729 339.767 75.7415 339.172L101.291 334.222C102.434 334.015 103.613 334.175 104.659 334.68C105.705 335.185 106.563 336.008 107.111 337.032C108.611 339.832 110.221 342.662 111.911 345.452C112.528 346.445 112.818 347.606 112.739 348.773C112.66 349.939 112.216 351.051 111.471 351.952L94.4715 371.582C92.7243 373.422 91.7093 375.837 91.6172 378.372C91.5251 380.908 92.3623 383.39 93.9715 385.352L101.381 394.262C102.994 396.219 105.277 397.508 107.786 397.878C110.296 398.247 112.853 397.671 114.961 396.262L137.331 382.832C138.323 382.238 139.48 381.978 140.631 382.092C141.781 382.205 142.865 382.685 143.721 383.462C146.201 385.632 148.721 387.722 151.091 389.652C152 390.37 152.658 391.359 152.968 392.475C153.279 393.591 153.228 394.777 152.821 395.862L143.551 420.262C142.543 422.59 142.425 425.207 143.219 427.617C144.014 430.027 145.666 432.06 147.861 433.332L157.971 439.172C160.167 440.44 162.754 440.853 165.236 440.333C167.717 439.813 169.92 438.395 171.421 436.352L187.971 416.002C189.371 414.272 191.571 413.502 193.201 414.162C196.681 415.602 199.011 416.412 203.141 417.792C204.242 418.151 205.198 418.852 205.873 419.793C206.547 420.733 206.904 421.865 206.891 423.022L206.491 449.072C206.357 451.617 207.152 454.123 208.728 456.125C210.305 458.127 212.556 459.487 215.061 459.952L226.511 461.952C229.007 462.387 231.575 461.9 233.737 460.58C235.899 459.261 237.507 457.2 238.261 454.782L246.761 430.012C247.146 428.91 247.875 427.96 248.84 427.303C249.805 426.646 250.955 426.316 252.121 426.362H261.871C263.029 426.337 264.165 426.678 265.117 427.337C266.069 427.996 266.788 428.939 267.171 430.032L275.641 454.702C276.298 456.844 277.623 458.719 279.422 460.052C281.222 461.386 283.402 462.108 285.641 462.112C286.238 462.113 286.834 462.06 287.421 461.952L298.891 459.952C301.383 459.495 303.624 458.149 305.198 456.165C306.772 454.18 307.573 451.692 307.452 449.162L307.051 423.002C307.044 421.849 307.403 420.724 308.077 419.789C308.751 418.855 309.705 418.158 310.801 417.802C314.641 416.512 317.341 415.472 319.711 414.552L320.311 414.322C323.411 413.252 324.911 414.552 325.781 415.632L342.531 436.262C344.033 438.303 346.234 439.718 348.713 440.239C351.192 440.759 353.777 440.347 355.971 439.082L366.042 433.252C368.244 431.98 369.901 429.941 370.696 427.524C371.491 425.108 371.368 422.484 370.352 420.152L361.112 395.812C360.704 394.727 360.648 393.542 360.951 392.424C361.254 391.306 361.902 390.312 362.801 389.582C365.231 387.582 367.722 385.582 370.202 383.362C371.059 382.589 372.141 382.112 373.289 382C374.438 381.889 375.592 382.149 376.581 382.742L398.971 396.142C401.094 397.525 403.648 398.085 406.155 397.717C408.661 397.348 410.947 396.077 412.581 394.142L419.982 385.242C421.623 383.306 422.493 380.833 422.425 378.296C422.356 375.759 421.355 373.336 419.612 371.492L402.551 351.822C401.794 350.938 401.34 349.833 401.259 348.671C401.178 347.51 401.474 346.353 402.102 345.372C403.812 342.662 405.442 339.802 406.922 336.932C407.477 335.905 408.343 335.08 409.395 334.574C410.447 334.067 411.632 333.906 412.781 334.112L438.262 339.082C440.731 339.678 443.334 339.344 445.573 338.143C447.813 336.942 449.531 334.959 450.401 332.572L454.352 321.692C455.235 319.311 455.214 316.688 454.292 314.321C453.371 311.955 451.613 310.008 449.352 308.852L426.551 296.182C425.541 295.611 424.742 294.73 424.272 293.669C423.802 292.608 423.686 291.424 423.941 290.292L424.181 289.022C424.701 286.232 425.182 283.592 425.642 280.782C425.801 279.637 426.318 278.572 427.119 277.738C427.92 276.905 428.964 276.346 430.102 276.142L455.792 272.002C458.31 271.698 460.632 270.486 462.321 268.594C464.011 266.702 464.953 264.259 464.971 261.722V250.012ZM182.521 344.012C181.275 346.179 179.533 348.019 177.437 349.382C175.341 350.744 172.952 351.59 170.466 351.85C167.98 352.109 165.468 351.775 163.136 350.875C160.804 349.975 158.718 348.535 157.051 346.672C134.523 321.762 122.084 289.352 122.161 255.766C122.239 222.18 134.828 189.827 157.471 165.022C159.147 163.16 161.241 161.723 163.581 160.829C165.921 159.935 168.44 159.61 170.93 159.881C173.421 160.151 175.811 161.009 177.905 162.385C179.998 163.76 181.735 165.614 182.971 167.792L228.621 248.142C229.992 250.538 230.713 253.251 230.713 256.012C230.713 258.773 229.992 261.485 228.621 263.882L182.521 344.012ZM256.971 391.192C247.455 391.194 237.966 390.189 228.661 388.192C226.238 387.65 223.975 386.545 222.058 384.967C220.141 383.388 218.623 381.379 217.626 379.104C216.63 376.829 216.184 374.352 216.324 371.872C216.464 369.392 217.186 366.98 218.431 364.832L264.431 284.832C265.815 282.421 267.81 280.419 270.216 279.026C272.622 277.634 275.352 276.901 278.131 276.902H370.271C372.753 276.898 375.201 277.479 377.417 278.598C379.633 279.716 381.554 281.341 383.024 283.34C384.495 285.34 385.474 287.657 385.881 290.106C386.289 292.554 386.115 295.064 385.371 297.432C367.881 351.752 316.971 391.192 256.971 391.192ZM264.481 227.292L218.971 147.152C217.738 145 217.028 142.588 216.9 140.111C216.771 137.634 217.227 135.161 218.231 132.893C219.234 130.625 220.758 128.624 222.677 127.054C224.597 125.483 226.859 124.386 229.281 123.852C238.386 121.933 247.667 120.968 256.971 120.972C316.971 120.972 367.881 160.412 385.341 214.762C386.085 217.13 386.259 219.64 385.851 222.088C385.444 224.536 384.465 226.854 382.994 228.853C381.524 230.853 379.603 232.478 377.387 233.596C375.171 234.715 372.723 235.296 370.241 235.292H278.241C275.445 235.297 272.697 234.56 270.279 233.154C267.861 231.748 265.86 229.725 264.481 227.292Z" fill="#93989E"/>
</svg>
