<svg width="512" height="512" viewBox="0 0 512 512" fill="none" xmlns="http://www.w3.org/2000/svg">
<path d="M256 280C269.255 280 280 269.255 280 256C280 242.745 269.255 232 256 232C242.745 232 232 242.745 232 256C232 269.255 242.745 280 256 280Z" fill="#287E41"/>
<path d="M256 48C141.31 48 48 141.31 48 256C48 370.69 141.31 464 256 464C370.69 464 464 370.69 464 256C464 141.31 370.69 48 256 48ZM361.07 161.33L314.19 278.53C310.971 286.579 306.15 293.891 300.02 300.02C293.891 306.15 286.579 310.971 278.53 314.19L161.33 361.07C159.876 361.652 158.284 361.794 156.75 361.48C155.215 361.165 153.808 360.407 152.7 359.3C151.593 358.192 150.835 356.785 150.52 355.25C150.206 353.716 150.348 352.124 150.93 350.67L197.81 233.47C201.029 225.421 205.85 218.109 211.98 211.98C218.109 205.85 225.421 201.029 233.47 197.81L350.67 150.93C352.124 150.348 353.716 150.206 355.25 150.52C356.785 150.835 358.192 151.593 359.3 152.7C360.407 153.808 361.165 155.215 361.48 156.75C361.794 158.284 361.652 159.876 361.07 161.33Z" fill="#287E41"/>
</svg>
