<svg width="512" height="512" viewBox="0 0 512 512" fill="none" xmlns="http://www.w3.org/2000/svg">
<path d="M256 48C141.31 48 48 141.31 48 256C48 370.69 141.31 464 256 464C370.69 464 464 370.69 464 256C464 141.31 370.69 48 256 48ZM325.3 144.17C339.635 144.19 353.642 148.459 365.552 156.437C377.461 164.415 386.738 175.745 392.21 188.995C397.682 202.244 399.103 216.818 396.295 230.875C393.486 244.932 386.573 257.841 376.43 267.97C366.287 278.1 353.368 284.995 339.307 287.784C325.246 290.573 310.674 289.132 297.432 283.642C284.191 278.151 272.874 268.859 264.912 256.938C256.95 245.018 252.7 231.005 252.7 216.67C252.707 207.143 254.59 197.71 258.242 188.91C261.894 180.11 267.243 172.116 273.985 165.384C280.726 158.652 288.728 153.313 297.533 149.673C306.337 146.033 315.773 144.163 325.3 144.17ZM170.2 170.53C181.929 170.546 193.39 174.038 203.135 180.566C212.879 187.094 220.47 196.364 224.947 207.205C229.425 218.045 230.588 229.97 228.29 241.472C225.993 252.973 220.337 263.536 212.037 271.824C203.738 280.112 193.168 285.754 181.663 288.036C170.159 290.318 158.235 289.139 147.401 284.647C136.566 280.155 127.306 272.551 120.792 262.798C114.277 253.045 110.8 241.579 110.8 229.85C110.804 222.054 112.344 214.336 115.331 207.135C118.319 199.935 122.695 193.394 128.211 187.885C133.728 182.376 140.275 178.008 147.479 175.031C154.684 172.053 162.404 170.523 170.2 170.53ZM94.35 325.53C118.85 312.24 150.22 305.59 170.2 305.59C185.2 305.59 204.52 308.59 223.53 315.79C210.787 322.901 199.3 332.06 189.53 342.9C176.34 357.9 168.77 375.82 168.77 393.73V408.73C135.649 389.759 109.546 360.594 94.35 325.58V325.53ZM256 432C235.752 432.017 215.654 428.522 196.6 421.67V394.62C196.6 342.03 282.35 315.53 325.3 315.53C348.3 315.53 383.68 323.16 411.51 338.34C396.534 366.599 374.147 390.247 346.75 406.747C319.354 423.247 287.982 431.977 256 432Z" fill="#93989E"/>
</svg>
