<svg width="512" height="512" viewBox="0 0 512 512" fill="none" xmlns="http://www.w3.org/2000/svg">
<path d="M411.16 97.46C368.43 55.86 311.88 32 256 32C200.12 32 143.57 55.86 100.84 97.46C56.45 140.67 32 197 32 256C32 282.67 40.75 317.09 64.88 381.55C89.01 446.01 137 473 157.27 477.41C163.08 478.68 169.89 480 176 480C186.528 480.009 196.874 477.25 206 472L220 464C235.07 455.18 239.47 435.87 230.8 420.65L143.88 268.08C141.809 264.429 139.034 261.226 135.716 258.655C132.398 256.084 128.603 254.197 124.55 253.103C120.498 252.009 116.269 251.731 112.108 252.283C107.947 252.835 103.937 254.207 100.31 256.32L86.62 264.32C81.3584 267.402 76.6305 271.316 72.62 275.91C72.1222 276.494 71.4669 276.923 70.7323 277.145C69.9976 277.367 69.2146 277.372 68.4767 277.162C67.7388 276.951 67.0771 276.532 66.5706 275.956C66.064 275.379 65.7341 274.669 65.62 273.91C64.612 267.992 64.0704 262.003 64 256C64 205.69 85 157.52 123.16 120.39C160 84.55 208.39 64 256 64C303.61 64 352 84.55 388.84 120.39C427 157.52 448 205.69 448 256C447.91 262.005 447.348 267.993 446.32 273.91C446.206 274.669 445.876 275.379 445.369 275.956C444.863 276.532 444.201 276.951 443.463 277.162C442.725 277.372 441.942 277.367 441.208 277.145C440.473 276.923 439.818 276.494 439.32 275.91C435.309 271.316 430.582 267.402 425.32 264.32L411.63 256.32C408.003 254.207 403.993 252.835 399.832 252.283C395.671 251.731 391.442 252.009 387.39 253.103C383.337 254.197 379.542 256.084 376.224 258.655C372.906 261.226 370.131 264.429 368.06 268.08L281.2 420.65C272.53 435.87 276.93 455.18 292 464L306 472C315.126 477.25 325.472 480.009 336 480C342.11 480 348.92 478.68 354.73 477.41C375 473 423 446 447.12 381.55C471.24 317.1 480 282.67 480 256C480 197 455.55 140.67 411.16 97.46Z" fill="#93989E"/>
</svg>
