<svg width="513" height="513" viewBox="0 0 513 513" fill="none" xmlns="http://www.w3.org/2000/svg">
<path d="M256.425 64.4941C150.425 64.4941 64.425 150.494 64.425 256.494C64.425 362.494 150.425 448.494 256.425 448.494C362.425 448.494 448.425 362.494 448.425 256.494C448.425 150.494 362.425 64.4941 256.425 64.4941ZM250.425 368.494C246.469 368.494 242.603 367.321 239.314 365.124C236.025 362.926 233.461 359.802 231.947 356.148C230.434 352.493 230.038 348.472 230.809 344.592C231.581 340.713 233.486 337.149 236.283 334.352C239.08 331.555 242.644 329.65 246.523 328.878C250.403 328.107 254.424 328.503 258.079 330.017C261.733 331.53 264.857 334.094 267.054 337.383C269.252 340.672 270.425 344.539 270.425 348.494C270.425 353.798 268.318 358.886 264.567 362.636C260.816 366.387 255.729 368.494 250.425 368.494ZM283.865 266.494C267.655 277.374 265.425 287.344 265.425 296.494C265.425 300.207 263.95 303.768 261.325 306.394C258.699 309.019 255.138 310.494 251.425 310.494C247.712 310.494 244.151 309.019 241.526 306.394C238.9 303.768 237.425 300.207 237.425 296.494C237.425 274.584 247.505 257.164 268.245 243.234C287.525 230.294 298.425 222.094 298.425 204.064C298.425 191.804 291.425 182.494 276.935 175.604C273.525 173.984 265.935 172.404 256.595 172.514C244.875 172.664 235.775 175.464 228.765 181.104C215.545 191.744 214.425 203.324 214.425 203.494C214.336 205.333 213.887 207.136 213.101 208.8C212.316 210.465 211.21 211.959 209.847 213.196C208.485 214.433 206.891 215.39 205.159 216.012C203.427 216.633 201.589 216.908 199.75 216.819C197.912 216.73 196.108 216.281 194.444 215.495C192.779 214.71 191.286 213.604 190.048 212.241C188.811 210.879 187.854 209.286 187.232 207.553C186.611 205.821 186.336 203.983 186.425 202.144C186.535 199.714 188.225 177.824 211.195 159.344C223.105 149.764 238.255 144.784 256.195 144.564C268.895 144.414 280.825 146.564 288.915 150.384C313.125 161.834 326.425 180.924 326.425 204.064C326.425 237.894 303.815 253.084 283.865 266.494Z" fill="#93989E"/>
</svg>
