<svg width="512" height="512" viewBox="0 0 512 512" fill="none" xmlns="http://www.w3.org/2000/svg">
<path d="M192 448H320M384 208V240C384 310.4 326.4 368 256 368M256 368C185.6 368 128 310.4 128 240V208M256 368V448" stroke="#93989E" stroke-width="32" stroke-linecap="round" stroke-linejoin="round"/>
<path d="M256 320C245.44 319.975 234.993 317.829 225.279 313.689C215.565 309.549 206.781 303.5 199.45 295.9C184.442 280.764 176.014 260.316 176 239V128C175.959 117.483 178 107.061 182.006 97.3369C186.012 87.6123 191.903 78.7769 199.34 71.3401C206.777 63.9032 215.612 58.012 225.337 54.0061C235.061 50.0003 245.483 47.959 256 48C300.86 48 336 83.14 336 128V239C336 283.66 300.11 320 256 320Z" fill="#93989E"/>
</svg>
