<svg width="512" height="512" viewBox="0 0 512 512" fill="none" xmlns="http://www.w3.org/2000/svg">
<path d="M60.4401 389.17C60.4401 389.24 60.4401 389.37 60.3601 389.55C60.3901 389.43 60.4101 389.3 60.4401 389.17ZM439.9 405.6C436.608 405.529 433.357 404.851 430.31 403.6L373.53 383.47L373.11 383.3C371.872 382.784 370.542 382.525 369.2 382.54C367.964 382.541 366.737 382.765 365.58 383.2C364.2 383.72 351.77 388.39 338.73 391.97C331.66 393.91 307.05 400.24 287.3 400.24C236.82 400.24 189.62 380.84 154.41 345.61C137.209 328.515 123.57 308.177 114.282 285.775C104.994 263.373 100.242 239.351 100.3 215.1C100.3 202.464 101.661 189.865 104.36 177.52C113.15 136.9 136.43 99.9501 169.91 73.5201C204.254 46.5804 246.651 31.9584 290.3 32.0001C342.51 32.0001 391.16 52.0001 427.3 88.1801C461.46 122.45 480.18 167.51 480.03 215.05C480.001 250.376 469.452 284.892 449.73 314.2L449.54 314.48L448.8 315.48C448.63 315.71 448.46 315.93 448.3 316.16L448.15 316.43C447.752 317.107 447.392 317.804 447.07 318.52L462.81 374.46C463.506 376.768 463.883 379.16 463.93 381.57C463.934 384.727 463.315 387.853 462.109 390.771C460.903 393.688 459.133 396.339 456.901 398.571C454.669 400.803 452.018 402.573 449.101 403.779C446.183 404.985 443.057 405.604 439.9 405.6Z" fill="#93989E"/>
<path d="M299.87 425.39C298.837 423.38 297.383 421.617 295.607 420.219C293.832 418.821 291.776 417.822 289.58 417.29C283.8 415.76 277.06 416.02 271.91 415.64C223.283 412.259 177.524 391.39 143.09 356.89C112.477 326.449 92.5823 286.887 86.4 244.16C85 234.42 85 232 85 232C84.9994 228.75 84.0093 225.578 82.1614 222.905C80.3134 220.231 77.6954 218.184 74.6555 217.036C71.6155 215.887 68.2979 215.691 65.144 216.475C61.9901 217.258 59.1495 218.983 57 221.42C57 221.42 49.12 230 45.4 238.61C34.9668 262.649 30.5175 288.859 32.4333 314.994C34.3491 341.129 42.5729 366.41 56.4 388.67C59 393 59 395 58.42 399.5C55.69 413.61 50.91 438.5 48.42 451.41C47.5956 455.597 47.9022 459.927 49.3084 463.956C50.7146 467.985 53.1694 471.566 56.42 474.33L56.88 474.72C61.1801 478.135 66.5087 479.996 72 480C75.0887 480.003 78.1474 479.394 81 478.21L134.51 457.56C136.352 456.86 138.388 456.86 140.23 457.56C161.3 465.4 183.23 469.56 204.01 469.56C229.901 469.584 255.479 463.896 278.92 452.9C284.38 450.34 292.92 447.56 297.92 441.78C299.812 439.538 301.005 436.79 301.352 433.877C301.699 430.964 301.183 428.013 299.87 425.39Z" fill="#93989E"/>
</svg>
