<svg width="513" height="513" viewBox="0 0 513 513" fill="none" xmlns="http://www.w3.org/2000/svg">
<path d="M467.876 45.595C463.731 41.4014 458.792 38.0746 453.348 35.8084C447.904 33.5422 442.063 32.3819 436.166 32.395H313.236C305.172 32.41 297.44 35.6044 291.716 41.285L45.9663 286.985C37.5808 295.388 32.8713 306.774 32.8713 318.645C32.8713 330.516 37.5808 341.902 45.9663 350.305L162.966 467.305C171.371 475.694 182.761 480.406 194.636 480.406C206.511 480.406 217.901 475.694 226.306 467.305L471.956 221.705C477.648 215.991 480.854 208.26 480.876 200.195V77.195C480.913 71.329 479.782 65.5143 477.55 60.0893C475.318 54.6642 472.03 49.7373 467.876 45.595ZM384.876 160.395C378.547 160.395 372.36 158.518 367.098 155.002C361.836 151.486 357.734 146.488 355.312 140.641C352.89 134.794 352.256 128.36 353.491 122.152C354.726 115.945 357.774 110.243 362.249 105.768C366.724 101.292 372.426 98.2446 378.633 97.0099C384.841 95.7751 391.275 96.4089 397.122 98.8309C402.969 101.253 407.967 105.354 411.483 110.617C415 115.879 416.876 122.066 416.876 128.395C416.876 136.882 413.505 145.021 407.504 151.022C401.503 157.024 393.363 160.395 384.876 160.395Z" fill="#93989E"/>
</svg>
